<svg width="120" height="120" viewBox="0 0 120 120" fill="none" xmlns="http://www.w3.org/2000/svg">
<path d="M0.5 60.0764V119.576H60H119.5V60.0764V0.576416H60H0.5V60.0764ZM71.781 25.1202C77.0468 26.0127 83.1455 28.4522 87.37 31.3082C89.1253 32.4982 92.5168 35.7707 93.7663 37.4664C95.1645 39.3704 96.7115 42.6429 97.3363 44.9634C97.961 47.3137 98.1097 52.6687 97.5742 52.8472C97.366 52.9364 97.1578 52.4604 97.0387 51.5977C96.771 49.9317 95.8785 48.5632 94.51 47.7599C92.963 46.8377 89.4823 46.8972 87.4593 47.8492L85.942 48.5334L84.6628 47.7897C80.7655 45.4989 75.5592 45.5882 71.067 48.0574L69.2225 49.0689L67.6458 48.0277C64.0758 45.6477 60.1785 46.2129 58.0365 49.4259C56.5788 51.5977 56.4895 54.3049 57.7985 56.8634C58.334 57.9047 58.3935 57.7857 55.359 61.2664C53.098 63.8547 48.9627 69.9534 47.2968 73.1664C44.411 78.6702 42.0905 85.2747 40.8113 91.5817C40.3948 93.6344 40.008 95.3302 39.9188 95.4194C39.8592 95.4789 39.2048 95.2112 38.461 94.7649C36.0215 93.3369 34.415 90.5702 33.9688 87.0894C33.8498 86.1374 33.6712 85.3639 33.6118 85.3639C33.225 85.3639 30.488 87.5952 28.7625 89.3504C27.7213 90.4214 26.7395 91.3139 26.6205 91.3139C26.1742 91.3139 26.3825 87.2977 26.9478 85.1557C27.6023 82.6864 29.0005 79.5627 29.893 78.6404C30.6368 77.8669 30.4583 77.6289 29.2385 77.6289C27.8105 77.6289 26.1445 78.1644 23.586 79.4437C22.158 80.1577 21.1168 80.5147 20.9382 80.3362C20.6408 80.0387 22.3365 76.1712 23.6455 74.2969C24.6868 72.8094 26.5312 70.8757 27.751 69.9832C28.7923 69.2097 28.6733 69.0907 26.8883 68.7337C25.252 68.4362 22.872 68.8229 21.2655 69.6262C19.9268 70.3104 19.8375 70.3104 19.8375 69.7452C19.8375 69.1204 21.087 67.1867 22.4258 65.6992C23.6753 64.3307 26.4718 62.2482 28.4353 61.2664L29.774 60.6119L28.9113 60.1657C28.227 59.8087 27.3048 59.7194 24.538 59.8384C21.8605 59.9574 21.0275 59.8979 21.0275 59.6302C21.0275 58.9757 24.5678 55.9412 26.7693 54.7214C27.9593 54.0669 29.8038 53.1744 30.9342 52.7579C32.035 52.3117 32.9275 51.8357 32.9275 51.7167C32.9275 51.5679 31.9755 51.1812 30.8153 50.8242C29.0898 50.2887 28.227 50.1994 26.204 50.3482C23.3183 50.5267 23.1398 50.2887 24.8652 48.8607C27.9295 46.3319 31.5293 44.8147 37.033 43.8329C38.699 43.5354 40.0675 43.1784 40.0675 43.0594C40.0675 42.7619 36.8545 41.6314 35.01 41.2744C33.4333 40.9769 30.845 41.0959 29.4468 41.5124C28.0485 41.8992 28.7625 40.7984 30.6963 39.5489C34.7125 36.9309 38.1635 36.0682 43.6375 36.3657C45.5117 36.4847 47.5348 36.6334 48.1 36.7227L49.1413 36.9012L48.1595 36.0384C46.7612 34.7889 44.292 33.6584 41.674 33.0634C40.3948 32.7659 39.3237 32.4089 39.2643 32.2304C39.1155 31.8139 41.4955 30.8024 43.578 30.3562C47.981 29.4339 55.002 30.5942 59.048 32.9147C59.762 33.3312 60.4165 33.5989 60.5058 33.5097C60.8033 33.1824 59.6728 31.5462 58.3638 30.3859C56.906 29.1067 53.5145 27.5597 51.4618 27.2027C50.718 27.0837 50.1825 26.8457 50.1825 26.6077C50.1825 25.8937 52.86 25.4177 56.8763 25.4474C60.2677 25.4474 61.0115 25.5664 62.9155 26.2507C65.6823 27.2324 68.1813 28.7794 70.0853 30.6239L71.6025 32.0519V31.1892C71.6025 29.2554 70.3232 27.2919 68.2408 25.9532C66.1582 24.6442 67.3483 24.3764 71.781 25.1202ZM65.8013 50.1399L66.664 50.9432L65.5038 51.8654C64.8493 52.3712 63.5998 53.4124 62.7073 54.1859C61.8148 54.9892 60.952 55.6139 60.7438 55.6139C60.238 55.6139 59.7025 54.2752 59.7025 53.0554C59.7025 50.7944 61.1603 49.3962 63.5998 49.3664C64.6708 49.3664 65.1468 49.5449 65.8013 50.1399ZM93.7067 51.8059C94.4803 52.7282 94.3613 54.2454 93.439 54.9892C92.9928 55.3462 92.3382 55.6139 91.9813 55.6139C91.6243 55.6139 90.9697 55.3462 90.5235 54.9892C89.6905 54.3347 89.4823 53.0852 90.0773 52.0142C90.7318 50.7647 92.725 50.6457 93.7067 51.8059ZM78.4748 52.0142C80.1705 53.7397 79.1292 56.3577 76.7195 56.3577C75.2617 56.3577 74.3693 55.6139 74.1015 54.2454C73.6255 51.7167 76.6302 50.1994 78.4748 52.0142ZM90.8508 56.9824C92.1895 57.6369 94.4505 59.6599 94.153 59.9574C94.0935 59.9872 92.963 59.7789 91.6838 59.4517C86.656 58.1427 82.9372 59.6004 81.7473 63.4084C81.0035 65.6694 82.491 68.1387 84.9007 68.5849C86.4775 68.8824 90.226 68.5254 92.368 67.8709C93.6175 67.4544 94.2125 67.3949 94.2125 67.6329C94.1828 68.2874 93.0225 70.5782 91.3863 73.0474C89.1848 76.4389 87.8163 79.2057 87.1915 81.5262C86.6263 83.6682 86.4775 88.7257 86.8643 92.8609L87.1022 95.4789H84.038H80.944L80.1408 92.9799C79.1292 89.8859 78.326 88.6364 76.8385 87.9224C75.2023 87.1192 73.7445 87.5059 72.9413 88.9934C72.376 90.0347 72.376 90.1537 72.8818 92.1172C73.1495 93.2179 73.447 94.4377 73.566 94.8244L73.7445 95.4789H69.877H66.0095L65.3848 93.6047C63.9865 89.3802 63.5105 85.0664 63.8973 80.4552C64.76 69.8344 70.9778 60.6714 79.5755 57.3394C83.7108 55.7329 87.9948 55.5842 90.8508 56.9824ZM99.4782 61.3259C100.877 62.6349 100.014 65.1339 98.1097 65.1339C96.8008 65.1339 95.8785 64.2414 95.8785 62.9027C95.8785 60.9392 98.0503 59.9872 99.4782 61.3259ZM55.24 87.4464C56.3408 88.2199 57.6497 90.1239 58.81 92.5634C60.2975 95.6872 60.7735 95.4789 52.5923 95.4789C48.6653 95.4789 45.3927 95.3599 45.3035 95.2112C45.0655 94.8542 45.9282 92.0577 46.791 90.3917C47.5645 88.8447 49.2603 87.2679 50.6287 86.8514C51.9675 86.4349 54.2583 86.7324 55.24 87.4464Z" fill="#23103A"/>
</svg>
