<svg width="145" height="114" viewBox="0 0 145 114" fill="none" xmlns="http://www.w3.org/2000/svg">
<path d="M84.5584 0.436366C84.6464 0.583562 84.7932 0.730759 84.8812 0.730759C84.9399 0.730759 84.9986 0.583562 84.9986 0.436366C84.9986 0.25973 84.8518 0.141973 84.6758 0.141973C84.5291 0.141973 84.4704 0.25973 84.5584 0.436366Z" fill="#0F0F0F"/>
<path d="M64.7514 1.61364C64.7514 2.05523 64.8981 2.20242 65.2796 2.14354C65.5437 2.08467 65.7785 1.84915 65.7785 1.61364C65.7785 1.37812 65.5437 1.14261 65.2796 1.08373C64.8981 1.02485 64.7514 1.17205 64.7514 1.61364Z" fill="#0F0F0F"/>
<path d="M68.9769 1.43698C68.7422 2.05521 69.065 2.4968 69.7692 2.4968C70.2094 2.4968 70.3561 2.32016 70.2681 1.84913C70.1507 1.05427 69.241 0.759879 68.9769 1.43698Z" fill="#0F0F0F"/>
<path d="M60.4673 1.64295C60.1738 2.14341 60.8487 2.70276 61.2595 2.29061C61.6117 1.93734 61.3769 1.31911 60.9368 1.31911C60.7901 1.31911 60.5846 1.46631 60.4673 1.64295Z" fill="#0F0F0F"/>
<path d="M73.1437 2.08499C72.8796 2.73265 73.6426 3.52751 74.2881 3.26256C74.5816 3.17424 74.7283 2.82097 74.6696 2.43826C74.5522 1.58452 73.4372 1.34901 73.1437 2.08499Z" fill="#0F0F0F"/>
<path d="M56.2418 2.64456C56.2418 2.90952 56.3885 3.08615 56.5645 3.02727C56.7406 2.9684 56.8873 2.79176 56.8873 2.64456C56.8873 2.49737 56.7406 2.32073 56.5645 2.26185C56.3885 2.20298 56.2418 2.37961 56.2418 2.64456Z" fill="#0F0F0F"/>
<path d="M88.2264 2.49665C88.2264 2.64385 88.4318 2.79105 88.6665 2.79105C88.9013 2.79105 89.1067 2.64385 89.1067 2.49665C89.1067 2.32002 88.9013 2.20226 88.6665 2.20226C88.4318 2.20226 88.2264 2.32002 88.2264 2.49665Z" fill="#0F0F0F"/>
<path d="M77.1932 3.20336C76.8704 4.02765 77.3105 4.61644 78.1615 4.49868C78.807 4.4398 78.9831 4.26317 78.9831 3.67438C78.9831 3.0856 78.807 2.90896 78.1615 2.85008C77.6333 2.79121 77.3105 2.90896 77.1932 3.20336Z" fill="#0F0F0F"/>
<path d="M52.1337 3.6742C52.1337 3.82139 52.2804 3.96859 52.4271 3.96859C52.6032 3.96859 52.7205 3.82139 52.7205 3.6742C52.7205 3.49756 52.6032 3.37981 52.4271 3.37981C52.2804 3.37981 52.1337 3.49756 52.1337 3.6742Z" fill="#0F0F0F"/>
<path d="M81.1839 4.82305C80.8024 5.55903 81.0665 6.23613 81.8001 6.47164C82.9152 6.82491 83.7074 5.44127 82.8858 4.61697C82.3576 4.08706 81.536 4.20482 81.1839 4.82305Z" fill="#0F0F0F"/>
<path d="M91.8063 5.02869C91.9237 5.64691 92.4518 5.70579 92.5692 5.05813C92.6279 4.76374 92.4812 4.55766 92.1877 4.55766C91.8943 4.55766 91.7476 4.7343 91.8063 5.02869Z" fill="#0F0F0F"/>
<path d="M61.8171 5.05836C61.5823 5.14668 61.0835 5.4705 60.7314 5.79434C60.2325 6.26537 59.9978 6.32425 59.5283 6.0593C58.5306 5.52939 57.2688 5.67658 56.5939 6.41257C56.2418 6.79527 55.9483 7.23686 55.9483 7.44294C55.9483 7.64901 55.6843 7.61957 55.1561 7.32518C54.6866 7.11911 54.0997 6.91303 53.8063 6.91303C53.014 6.91303 51.8402 8.2378 51.8402 9.15041C51.8402 9.91584 51.8109 9.91584 51.3121 9.47425C50.5785 8.82658 49.1113 8.85602 48.5244 9.50368C47.8495 10.2397 47.9082 11.5056 48.6124 12.2121C49.7862 13.3897 51.8402 12.5948 51.8402 10.9756V10.063L52.5151 10.6813C53.5422 11.6528 54.8626 11.535 55.7429 10.4163C56.3592 9.62144 56.4765 9.592 56.7993 9.97471C57.3275 10.6224 58.9414 10.5635 59.7924 9.88639C60.4379 9.38593 60.5846 9.38593 61.0835 9.7392C61.729 10.2397 63.607 10.2985 64.0765 9.82752C64.3113 9.592 64.6047 9.65088 65.1622 10.0042C65.7198 10.3869 66.336 10.4752 67.3924 10.3869C69.0943 10.2102 69.2997 10.4752 67.8325 11.0051C67.0989 11.27 66.6588 11.27 66.248 11.064C65.3383 10.5635 64.0178 10.6813 63.1962 11.3289C62.58 11.8294 62.3159 11.8588 61.641 11.6233C60.5846 11.2112 59.4109 11.4761 58.5893 12.3593C58.0904 12.8892 57.7677 13.007 57.1808 12.8303C55.9483 12.5065 55.1561 12.7714 54.3638 13.7135C53.7476 14.42 53.4248 14.5672 52.3097 14.5672C51.2534 14.5672 50.9012 14.7144 50.4024 15.3327C50.0503 15.7742 49.7862 16.2747 49.7862 16.4513C49.7862 16.6574 49.2873 16.7752 48.6418 16.7752C47.2333 16.7752 46.2649 17.57 46.2649 18.7476C46.2649 19.513 46.1769 19.5719 45.1205 19.5719C43.6534 19.5719 42.597 20.72 42.8611 21.9859C43.0078 22.7808 42.9785 22.8102 41.8634 22.8102C41.0124 22.8102 40.6016 22.9869 40.2788 23.4579C39.2225 24.9593 40.0734 26.6373 41.8634 26.6373C42.7731 26.6373 43.1252 26.4901 43.5066 25.9013C43.7707 25.4892 43.9175 24.8415 43.8588 24.4588C43.7414 23.8406 43.8294 23.7817 44.8271 23.8112C46.1182 23.8406 47.1453 23.0457 47.1453 22.0154C47.1453 21.3971 47.292 21.3383 48.407 21.3383C49.7275 21.3383 50.3731 20.8967 50.7839 19.7485C50.9012 19.4247 51.136 19.2775 51.4294 19.3953C51.6935 19.4836 51.987 19.5719 52.1337 19.5719C52.251 19.5719 52.1337 20.0429 51.8696 20.6023C51.5175 21.3677 51.224 21.6032 50.6371 21.6327C49.5514 21.6327 48.6124 22.4864 48.3483 23.6934C48.2016 24.5177 47.9962 24.7532 47.38 24.8121C46.353 24.9299 45.326 26.1074 45.2379 27.285C45.1792 27.9621 45.0032 28.2859 44.6217 28.3448C43.5066 28.5509 42.7437 29.6107 42.7437 30.8766C42.7437 31.9364 42.6263 32.1425 41.8927 32.4663C40.807 32.9373 40.2788 34.2621 40.719 35.4102C40.9538 35.999 40.9244 36.2345 40.6603 36.3228C39.9267 36.5584 38.929 37.8242 38.929 38.5014C38.929 38.8841 39.1931 39.5612 39.5453 40.0028C40.1321 40.7387 40.1321 40.7682 39.5746 40.7682C38.0487 40.7682 37.3738 43.3294 38.6356 44.3598C39.4572 45.0369 40.8951 44.8897 41.5113 44.0948C42.0101 43.4177 41.9514 41.7985 41.3939 41.357C41.0124 41.0037 41.0711 40.9154 41.8341 40.5915C43.0078 40.0911 43.5653 38.9429 43.1252 37.8242C42.8611 37.1471 42.8904 36.9705 43.3012 36.8527C43.5653 36.7644 43.9761 36.6172 44.2402 36.5289C45.0912 36.1756 45.1499 37.7359 44.3283 38.5602C43.5947 39.2962 43.3599 41.092 43.8881 41.9163C44.0935 42.2107 43.9761 42.5934 43.5947 43.0644C42.8611 44.0359 42.8611 45.8023 43.5947 46.4794C44.1522 46.9799 44.1522 47.0093 43.5947 47.5686C42.7731 48.3929 42.8611 49.9238 43.7707 50.7775C44.4163 51.3957 44.4456 51.5135 44.0642 52.0728C43.2132 53.2799 43.6827 55.0168 44.9738 55.4878C45.6781 55.7528 45.6781 55.8116 45.2673 56.4299C43.6827 58.6672 46.6464 61.0518 48.407 58.9616C48.6711 58.6378 48.9059 58.0785 48.9059 57.7252C48.9059 56.842 48.1136 55.7822 47.4094 55.7822C46.7051 55.7822 46.7051 55.635 47.4387 54.899C47.7615 54.5752 48.0256 54.1042 48.0256 53.8686C48.0256 53.5154 48.1429 53.4859 48.5831 53.692C49.0233 53.9275 49.0819 54.2513 48.9646 55.4289C48.8472 56.7242 48.9059 56.9303 49.6395 57.4897C50.0796 57.8429 50.6078 58.1373 50.8132 58.1373C51.0773 58.1373 51.1653 58.4612 51.048 59.2855C50.9012 60.257 51.0186 60.5808 51.6348 61.199C52.0456 61.6112 52.7205 61.9644 53.1314 61.9644C53.6889 61.9644 53.8063 62.0822 53.6889 62.5532C53.2781 64.0841 54.3344 65.3205 56.007 65.2616C56.7406 65.2322 56.8287 65.3499 56.8287 66.2331C56.8287 67.4107 57.7677 68.4411 58.7947 68.4411C59.1761 68.4411 59.8217 68.0878 60.2619 67.6756C60.9074 67.028 60.9661 66.763 60.8194 65.7621C60.702 65.0556 60.7607 64.614 60.9368 64.614C61.0835 64.614 61.2302 64.7906 61.2302 65.0261C61.2302 65.2322 61.4943 65.7621 61.8171 66.1742L62.4039 66.9102L61.5236 67.2635C59.9391 67.9406 59.9978 70.3252 61.641 70.8845C63.2256 71.4144 64.8688 69.2359 63.8418 67.97C63.431 67.4696 63.4897 67.4107 64.546 67.1457C65.1036 67.028 65.3383 67.0574 65.3383 67.3518C65.3383 68.1761 66.5121 69.0299 67.6858 69.0299C68.302 69.0299 68.9182 68.8827 69.0063 68.7355C69.0943 68.5588 69.6225 68.9121 70.1507 69.4714C71.2364 70.6196 71.8526 70.7373 73.085 69.9719C73.936 69.4714 73.936 69.4714 74.787 70.2957C75.7553 71.2967 76.8117 71.2084 77.8094 70.0897L78.4256 69.442L78.9244 70.1191C79.8927 71.385 82.1522 70.8845 82.5043 69.3537C82.7391 68.2644 82.2696 67.3224 81.3012 66.9691C80.8904 66.7925 80.6557 66.557 80.7437 66.3803C80.8611 66.1742 81.0958 66.1742 81.4773 66.3803C81.7707 66.5275 82.3576 66.6747 82.7978 66.6747C83.4433 66.6747 83.502 66.763 83.2379 67.2341C82.4456 68.7355 83.2966 70.2074 84.9105 70.2074C85.9669 70.2074 86.7592 69.4126 86.7592 68.3528C86.7592 67.499 85.8495 66.3803 85.1453 66.3803C84.6171 66.3803 84.5877 66.2331 85.0572 65.5266C85.3213 65.085 85.6441 65.0261 86.6711 65.1439C87.7275 65.2616 88.0796 65.1733 88.6665 64.614C89.0773 64.2313 89.4001 63.7013 89.4001 63.407C89.4001 62.9948 89.6055 62.9359 90.5738 63.0537C91.5422 63.2009 91.8943 63.1126 92.4812 62.5532C92.892 62.1411 93.2148 61.5228 93.2148 61.0813C93.2148 60.3747 93.3028 60.3158 94.2124 60.4336C95.5916 60.5808 96.8534 59.4032 96.6773 58.1079C96.5599 57.2836 96.5893 57.2542 97.675 57.2542C98.526 57.2542 98.8781 57.0775 99.2302 56.5476C99.9051 55.5467 99.6704 54.3397 98.702 53.6037C98.0271 53.1032 97.763 53.0443 97.0294 53.3387C96.3545 53.6037 96.1491 53.5742 96.0317 53.2504C95.9437 52.9855 96.0611 52.8383 96.3839 52.8383C96.6773 52.8383 97.1761 52.6322 97.4989 52.3967C98.2032 51.8668 98.4966 51.8373 98.4966 52.3378C98.4966 53.1032 99.5823 53.7803 100.58 53.6626C102.575 53.4859 102.898 50.7186 101.05 50.0415C100.404 49.8355 100.022 49.8649 99.3476 50.2476L98.4966 50.7481V49.806C98.4966 49.07 98.702 48.7462 99.3476 48.3929C100.316 47.8336 100.756 46.4205 100.257 45.4785C99.9638 44.9485 100.052 44.7425 100.815 44.0359C101.842 43.0644 102.018 41.8869 101.284 40.8565C100.873 40.2677 100.903 40.1499 101.578 39.4728C102.546 38.5014 102.517 37.4121 101.49 36.3523L100.639 35.528L101.284 35.2336C102.722 34.5565 102.341 32.0836 100.727 31.5537C98.8194 30.906 97.2642 33.8499 98.8781 35.057L99.5823 35.5869L98.7314 36.2934C97.7924 37.0883 97.6163 38.5014 98.3792 39.3256C98.79 39.7967 98.79 39.8556 98.2619 40.1499C97.3816 40.621 96.9121 42.0341 97.2642 43.0939C97.5283 43.8593 97.4989 44.0065 97.0001 44.1537C96.2078 44.4186 95.4742 45.9789 95.6796 46.9799C95.797 47.6275 95.7383 47.8336 95.3862 47.8336C94.6233 47.8336 93.5082 49.2172 93.5082 50.1299C93.5082 50.807 93.3615 51.0425 92.7746 51.1897C91.8063 51.4252 90.8673 52.485 90.8673 53.3387C90.8673 53.8392 90.6912 54.0158 90.2804 54.0158C89.2534 54.0158 87.9622 54.8696 87.7568 55.635C87.6101 56.2238 87.4047 56.371 86.6124 56.371C86.0843 56.371 85.292 56.6654 84.8225 57.0186C84.1769 57.5485 83.6781 57.6663 82.6511 57.6074C81.536 57.5191 81.2132 57.6369 80.6263 58.2551C79.9808 58.9322 79.8927 58.9616 79.2472 58.52C78.4256 57.9901 76.9584 58.1668 76.1368 58.9322C75.726 59.3149 75.5205 59.3443 75.2565 59.0794C74.8163 58.6378 72.6155 58.6084 72.1754 59.0499C71.97 59.256 71.6472 59.1383 71.0603 58.5789C70.3854 57.8724 70.1213 57.7841 69.0943 57.9313C68.0379 58.0785 67.8325 57.9901 67.187 57.2247C66.6001 56.5476 66.2186 56.371 65.309 56.371C64.546 56.371 64.1646 56.2532 64.1646 55.9588C64.1646 55.3112 62.668 54.0158 61.9344 54.0158C61.3769 54.0158 61.2302 53.8686 61.2302 53.2504C61.2302 52.4261 59.7924 50.7775 59.0881 50.7775C58.7947 50.7775 58.7066 50.5714 58.7947 50.1887C59.0001 49.4233 58.3545 47.8925 57.709 47.5392C57.2688 47.3037 57.2101 47.0093 57.3275 46.0672C57.4742 45.1252 57.3568 44.6542 56.9167 44.0359C56.3885 43.3294 56.3592 43.1822 56.7113 42.6817C57.2101 42.0341 57.2395 40.6799 56.8287 39.8556C56.5939 39.414 56.6526 39.1196 57.1514 38.4425C57.6209 37.7948 57.7383 37.2943 57.6503 36.47C57.5329 35.4985 57.6503 35.2336 58.3545 34.6448C58.9414 34.1443 59.1761 33.6733 59.1761 32.9668C59.1761 32.2013 59.3229 31.9364 59.851 31.7892C60.8194 31.4654 61.8171 30.435 61.8171 29.7285C61.8171 29.228 62.0518 29.0219 62.7561 28.8747C63.7538 28.6686 65.0449 27.6383 65.0449 27.0495C65.0449 26.814 65.4557 26.6668 66.248 26.6962C67.1283 26.6962 67.6271 26.5196 68.214 25.9602C68.8009 25.4009 69.1236 25.2537 69.4464 25.4598C70.18 25.9308 71.3831 25.7836 72.1754 25.1654C72.6742 24.7827 72.997 24.6649 73.1144 24.871C73.5252 25.5186 74.787 25.7836 75.8433 25.4303C76.6943 25.1359 76.929 25.1654 77.1931 25.5186C77.78 26.3135 78.807 26.6668 79.8634 26.4607C80.5383 26.3429 80.8904 26.4018 80.8904 26.6079C80.8904 27.2556 82.0642 28.1093 82.9445 28.1093C83.6487 28.1093 83.9128 28.2859 84.1182 28.8747C84.2943 29.3163 84.9399 30.2584 85.5854 30.9943C87.5221 33.2023 88.6078 35.7046 88.7545 38.4425C88.8426 39.7084 89.0186 40.7682 89.1653 40.7682C89.987 40.7682 92.3344 37.2355 93.2441 34.5859C93.8897 32.7018 94.0657 29.1691 93.7136 25.9013C93.6549 25.2537 93.5669 24.4883 93.5375 24.2233C93.5375 23.9584 93.1854 23.3696 92.8039 22.8985C92.4225 22.4275 92.041 21.5149 91.953 20.7495C91.8356 19.7191 91.5422 19.2186 90.6032 18.306C89.9283 17.6878 89.4001 16.9224 89.4001 16.6574C89.4001 15.8626 88.2557 14.5378 87.1406 14.0962C86.6124 13.8607 86.1723 13.478 86.1723 13.2719C86.1723 12.5654 84.4997 11.1228 83.4433 10.9168C82.8271 10.799 82.2989 10.4752 82.0642 10.0042C81.6534 9.20929 80.1275 8.38499 79.1298 8.38499C78.7777 8.38499 78.0148 7.97284 77.4279 7.47238C76.5769 6.70695 76.2248 6.5892 75.1978 6.67752C74.2588 6.79527 73.8186 6.67752 73.1731 6.11817C72.2928 5.41163 70.7082 5.20555 69.7399 5.73546C69.3584 5.94154 69.1236 5.91209 68.8595 5.58826C68.2727 4.88172 66.5414 4.70509 65.485 5.26443C64.6634 5.70602 64.4873 5.73546 63.7244 5.32331C62.7854 4.82285 62.5213 4.7934 61.8171 5.05836Z" fill="#0F0F0F"/>
<path d="M84.9985 6.73665C84.1769 7.76702 85.3213 9.4745 86.407 8.7974C87.4341 8.14973 87.0526 6.3245 85.8789 6.3245C85.5854 6.3245 85.204 6.53057 84.9985 6.73665Z" fill="#0F0F0F"/>
<path d="M95.0341 7.59026C94.5939 8.09073 95.0634 8.82671 95.709 8.56175C96.2372 8.38512 96.2078 7.4725 95.6796 7.29587C95.5036 7.23699 95.2101 7.35475 95.0341 7.59026Z" fill="#0F0F0F"/>
<path d="M88.4611 9.29721C87.8449 9.65048 87.7568 10.7397 88.285 11.2696C88.4904 11.4757 89.0186 11.6229 89.4587 11.6229C90.1043 11.6229 90.3097 11.4463 90.4564 10.8281C90.8086 9.44441 89.6642 8.56123 88.4611 9.29721Z" fill="#0F0F0F"/>
<path d="M97.7337 10.8869C97.6163 11.1519 97.675 11.5051 97.8511 11.6818C98.2912 12.1234 99.1422 11.7112 99.0248 11.1224C98.9074 10.4453 97.9684 10.2687 97.7337 10.8869Z" fill="#0F0F0F"/>
<path d="M44.9738 11.7703C44.4163 12.3297 44.3576 13.7133 44.8565 14.2138C45.0619 14.4199 45.6487 14.567 46.1769 14.567C46.8812 14.567 47.2626 14.361 47.6441 13.8016C48.0843 13.0951 48.0843 12.9479 47.7028 12.2413C47.1746 11.2993 45.7074 11.0638 44.9738 11.7703Z" fill="#0F0F0F"/>
<path d="M91.5128 12.3885C90.6912 12.9478 90.7499 14.1843 91.6008 14.7436C93.068 15.7151 94.5939 13.3894 93.1561 12.3885C92.8039 12.1235 92.4225 11.9174 92.3344 11.9174C92.2464 11.9174 91.8649 12.1235 91.5128 12.3885Z" fill="#0F0F0F"/>
<path d="M41.8047 14.302C41.0125 14.773 41.1298 16.2155 42.0101 16.8043C42.685 17.2459 42.8024 17.2459 43.4773 16.8043C44.4163 16.1861 44.4457 15.0674 43.5654 14.4492C42.8024 13.9193 42.509 13.8898 41.8047 14.302Z" fill="#0F0F0F"/>
<path d="M100.257 14.7144C100.257 15.3031 100.404 15.4503 100.991 15.4503C101.578 15.4503 101.724 15.3031 101.724 14.7144C101.724 14.1256 101.578 13.9784 100.991 13.9784C100.404 13.9784 100.257 14.1256 100.257 14.7144Z" fill="#0F0F0F"/>
<path d="M93.6256 16.1859C93.0093 17.1574 93.4495 18.3055 94.5352 18.5705C96.0024 18.9532 97.0588 17.0102 95.9731 15.9209C95.2688 15.2144 94.1831 15.3322 93.6256 16.1859Z" fill="#0F0F0F"/>
<path d="M38.5182 17.8641C38.1368 18.4234 38.1074 18.6001 38.4595 19.13C39.2225 20.2781 40.6897 19.8954 40.6897 18.5706C40.6897 17.2164 39.2812 16.7454 38.5182 17.8641Z" fill="#0F0F0F"/>
<path d="M102.311 17.9524C101.783 18.6 102.282 19.4243 103.221 19.4243C103.808 19.4243 103.925 19.2771 103.925 18.5412C103.925 17.8641 103.778 17.6285 103.309 17.5697C102.986 17.5108 102.517 17.6874 102.311 17.9524Z" fill="#0F0F0F"/>
<path d="M95.7676 19.8075C95.1221 20.5141 95.1514 21.4267 95.797 22.0155C96.912 23.0458 98.79 22.2804 98.79 20.8379C98.79 19.4543 96.7066 18.7477 95.7676 19.8075Z" fill="#0F0F0F"/>
<path d="M35.6719 21.2208C35.4078 21.5446 35.3785 21.8095 35.6132 22.1628C36.0534 22.8694 36.9043 22.9577 37.3445 22.3689C38.1661 21.2502 36.5522 20.1609 35.6719 21.2208Z" fill="#0F0F0F"/>
<path d="M109.941 21.0733C109.941 21.2205 110.087 21.2793 110.234 21.191C110.41 21.1027 110.528 20.9555 110.528 20.8672C110.528 20.8083 110.41 20.7494 110.234 20.7494C110.087 20.7494 109.941 20.8966 109.941 21.0733Z" fill="#0F0F0F"/>
<path d="M103.808 22.0445C103.544 22.3683 103.514 22.6333 103.778 23.1043C104.395 24.2524 106.214 23.3104 105.744 22.1034C105.51 21.5146 104.277 21.4852 103.808 22.0445Z" fill="#0F0F0F"/>
<path d="M97.3229 23.6931C96.5893 24.4291 96.5893 25.1945 97.2642 26.0482C98.4086 27.4613 100.815 26.3426 100.404 24.6057C100.052 23.1043 98.4086 22.6038 97.3229 23.6931Z" fill="#0F0F0F"/>
<path d="M33.5592 24.7526C33.2657 25.047 33.2951 25.9891 33.6178 26.1657C34.146 26.4895 34.8503 25.9891 34.7622 25.3414C34.6742 24.7232 33.9406 24.3699 33.5592 24.7526Z" fill="#0F0F0F"/>
<path d="M110.821 25.1648C110.821 25.312 111.026 25.4592 111.261 25.4592C111.496 25.4592 111.701 25.312 111.701 25.1648C111.701 24.9881 111.496 24.8704 111.261 24.8704C111.026 24.8704 110.821 24.9881 110.821 25.1648Z" fill="#0F0F0F"/>
<path d="M104.864 25.9599C104.541 26.2837 104.629 27.373 105.011 27.7557C105.891 28.6389 107.212 27.7557 106.889 26.4898C106.742 25.9305 106.507 25.7538 105.862 25.7538C105.422 25.7538 104.952 25.8422 104.864 25.9599Z" fill="#0F0F0F"/>
<path d="M37.9314 26.8138C37.3739 27.3437 37.3152 29.0217 37.814 29.5222C38.3422 30.0521 39.9561 29.9343 40.4843 29.3456C41.57 28.168 40.7484 26.3428 39.1345 26.3428C38.7237 26.3428 38.1661 26.5488 37.9314 26.8138Z" fill="#0F0F0F"/>
<path d="M98.2032 28.0204C97.1468 29.3746 97.9684 31.0527 99.6703 31.0527C100.668 31.0527 101.343 30.5228 101.578 29.5807C101.842 28.5209 100.785 27.2256 99.6703 27.2256C99.1128 27.2256 98.614 27.4905 98.2032 28.0204Z" fill="#0F0F0F"/>
<path d="M31.3584 29.1981C31.4171 29.4925 31.6518 29.728 31.8866 29.728C32.1213 29.728 32.3561 29.4925 32.4148 29.1981C32.4734 28.8448 32.3267 28.6976 31.8866 28.6976C31.4464 28.6976 31.2997 28.8448 31.3584 29.1981Z" fill="#0F0F0F"/>
<path d="M111.613 29.198C111.232 29.5513 111.408 29.8751 111.995 29.8751C112.317 29.8751 112.582 29.669 112.582 29.4335C112.582 28.9919 111.965 28.8153 111.613 29.198Z" fill="#0F0F0F"/>
<path d="M105.304 30.2287C105.099 30.4348 104.952 30.847 104.952 31.2002C104.952 31.5535 105.099 31.9657 105.304 32.1717C105.51 32.3778 105.921 32.525 106.273 32.525C106.625 32.525 107.036 32.3778 107.241 32.1717C107.446 31.9657 107.593 31.5535 107.593 31.2002C107.593 30.847 107.446 30.4348 107.241 30.2287C107.036 30.0227 106.625 29.8755 106.273 29.8755C105.921 29.8755 105.51 30.0227 105.304 30.2287Z" fill="#0F0F0F"/>
<path d="M35.936 30.5228C35.6719 30.7288 35.3785 31.1999 35.2611 31.5531C34.997 32.4952 36.3175 33.82 37.2565 33.555C38.6356 33.1134 39.0464 31.7592 38.0488 30.7583C37.3739 30.0812 36.6109 29.9929 35.936 30.5228Z" fill="#0F0F0F"/>
<path d="M29.8325 33.261C29.8325 33.4965 29.9792 33.7025 30.1259 33.7025C30.302 33.7025 30.4194 33.4965 30.4194 33.261C30.4194 33.0254 30.302 32.8194 30.1259 32.8194C29.9792 32.8194 29.8325 33.0254 29.8325 33.261Z" fill="#0F0F0F"/>
<path d="M111.789 33.5846C111.555 34.2028 112.171 34.8211 112.611 34.3795C112.992 33.9968 112.758 33.1136 112.288 33.1136C112.112 33.1136 111.907 33.3197 111.789 33.5846Z" fill="#0F0F0F"/>
<path d="M105.216 34.5565C104.629 35.0275 104.571 35.2336 104.805 35.9401C105.334 37.4415 107.593 37.1766 107.593 35.5868C107.593 34.8509 106.889 33.9971 106.273 33.9971C106.067 33.9971 105.598 34.2621 105.216 34.5565Z" fill="#0F0F0F"/>
<path d="M34.2928 34.7622C33.4125 35.3805 33.4418 36.4992 34.3808 37.1174C35.0557 37.559 35.1731 37.559 35.848 37.1174C36.787 36.4992 36.8163 35.3805 35.936 34.7622C35.5839 34.4973 35.2024 34.2912 35.1144 34.2912C35.0264 34.2912 34.6449 34.4973 34.2928 34.7622Z" fill="#0F0F0F"/>
<path d="M111.525 37.971C111.408 38.2359 111.466 38.5892 111.643 38.7658C112.083 39.2074 112.934 38.7953 112.816 38.2065C112.699 37.5294 111.76 37.3528 111.525 37.971Z" fill="#0F0F0F"/>
<path d="M104.424 38.7662C104.219 38.9723 104.072 39.4728 104.072 39.8849C104.072 40.2971 104.219 40.7975 104.424 41.0036C104.629 41.2097 105.128 41.3569 105.539 41.3569C105.95 41.3569 106.449 41.2097 106.654 41.0036C106.86 40.7975 107.006 40.2971 107.006 39.8849C107.006 39.4728 106.86 38.9723 106.654 38.7662C106.449 38.5601 105.95 38.4129 105.539 38.4129C105.128 38.4129 104.629 38.5601 104.424 38.7662Z" fill="#0F0F0F"/>
<path d="M33.2364 39.0899C32.8843 39.3549 32.7375 39.767 32.8256 40.3264C32.8843 41.0624 33.0603 41.2095 33.8526 41.2979C35.1144 41.4156 35.6719 40.4736 34.9677 39.4138C34.4688 38.6189 33.9993 38.5306 33.2364 39.0899Z" fill="#0F0F0F"/>
<path d="M110.821 42.0627C110.293 42.7104 110.674 43.4758 111.466 43.358C111.965 43.2991 112.141 43.0636 112.141 42.5337C112.141 41.68 111.378 41.415 110.821 42.0627Z" fill="#0F0F0F"/>
<path d="M102.898 43.0935C101.783 45.1837 104.659 46.9206 105.803 44.8598C106.185 44.1533 106.185 44.0061 105.744 43.2996C105.099 42.3281 103.397 42.2103 102.898 43.0935Z" fill="#0F0F0F"/>
<path d="M32.2974 43.8295C31.9453 44.7421 32.2974 45.3309 33.1777 45.3309C34.2341 45.3309 34.8209 44.5655 34.2634 43.8883C33.7646 43.2996 32.5028 43.2701 32.2974 43.8295Z" fill="#0F0F0F"/>
<path d="M38.1074 45.6545C36.6989 46.626 37.6086 49.0106 39.3985 49.0106C40.0734 49.0106 41.2765 47.7742 41.2765 47.0971C41.2765 46.42 40.0734 45.1835 39.3985 45.1835C39.0464 45.1835 38.4595 45.3896 38.1074 45.6545Z" fill="#0F0F0F"/>
<path d="M109.471 46.185C109.178 46.9504 109.5 47.6863 110.146 47.7747C110.968 47.8924 111.613 46.8326 111.085 46.185C110.645 45.655 109.677 45.655 109.471 46.185Z" fill="#0F0F0F"/>
<path d="M101.343 46.891C100.697 47.5976 100.727 48.8046 101.372 49.3934C102.546 50.4532 104.365 49.6583 104.365 48.0686C104.365 46.5672 102.341 45.7723 101.343 46.891Z" fill="#0F0F0F"/>
<path d="M32.2974 48.2748C31.8572 49.3935 33.1484 50.3944 33.8233 49.4523C34.0874 49.0696 34.1167 48.7752 33.9113 48.3925C33.5592 47.7154 32.5321 47.6566 32.2974 48.2748Z" fill="#0F0F0F"/>
<path d="M38.6356 49.8056C37.99 50.0412 37.4618 50.8066 37.4618 51.5131C37.4618 52.9262 39.5159 53.6622 40.4842 52.6024C41.1885 51.8075 41.1005 50.8949 40.2201 50.2178C39.3985 49.5701 39.3398 49.5407 38.6356 49.8056Z" fill="#0F0F0F"/>
<path d="M107.769 50.041C107.212 50.6298 107.182 50.8065 107.681 51.4836C108.444 52.5434 110.146 51.3658 109.471 50.2471C109.031 49.57 108.356 49.4817 107.769 50.041Z" fill="#0F0F0F"/>
<path d="M32.8843 52.6907C32.3561 53.0734 32.3561 53.1323 32.8256 53.6033C33.3538 54.1332 34.2341 53.986 34.2341 53.3384C34.2341 52.5729 33.5005 52.2197 32.8843 52.6907Z" fill="#0F0F0F"/>
<path d="M113.315 53.427C113.227 53.5742 113.286 53.7214 113.433 53.7214C113.609 53.7214 113.755 53.5742 113.755 53.427C113.755 53.2503 113.697 53.1326 113.638 53.1326C113.55 53.1326 113.403 53.2503 113.315 53.427Z" fill="#0F0F0F"/>
<path d="M105.246 53.9864C104.776 54.899 105.363 55.841 106.331 55.7233C107.329 55.6055 107.857 54.7812 107.417 54.0747C106.948 53.3092 105.656 53.2504 105.246 53.9864Z" fill="#0F0F0F"/>
<path d="M38.4889 54.8984C38.0487 55.3694 37.9901 55.6638 38.2248 56.282C38.753 57.8129 41.0418 57.6363 41.2179 56.0465C41.3939 54.4863 39.5453 53.7208 38.4889 54.8984Z" fill="#0F0F0F"/>
<path d="M102.663 57.0186C101.842 57.8429 102.458 59.3148 103.632 59.3148C104.424 59.3148 104.952 58.7849 104.952 57.9901C104.952 57.1952 104.424 56.6653 103.632 56.6653C103.28 56.6653 102.869 56.8125 102.663 57.0186Z" fill="#0F0F0F"/>
<path d="M33.6472 57.5484C33.6472 57.99 33.7939 58.1372 34.1754 58.0783C34.4395 58.0194 34.6742 57.7839 34.6742 57.5484C34.6742 57.3129 34.4395 57.0773 34.1754 57.0185C33.7939 56.9596 33.6472 57.1068 33.6472 57.5484Z" fill="#0F0F0F"/>
<path d="M111.114 57.2538C111.114 57.401 111.261 57.5482 111.408 57.5482C111.584 57.5482 111.701 57.401 111.701 57.2538C111.701 57.0772 111.584 56.9595 111.408 56.9595C111.261 56.9595 111.114 57.0772 111.114 57.2538Z" fill="#0F0F0F"/>
<path d="M39.4866 59.3438C38.9877 60.3153 39.5746 61.3751 40.631 61.3751C41.5993 61.3751 42.1568 60.9041 42.1568 60.0503C42.1568 59.1966 41.5993 58.7256 40.631 58.7256C40.1028 58.7256 39.7213 58.9317 39.4866 59.3438Z" fill="#0F0F0F"/>
<path d="M99.4356 59.9619C98.8487 60.5507 99.0248 61.9049 99.6997 62.2876C100.991 62.9647 102.429 61.5222 101.724 60.1974C101.372 59.5203 100.022 59.3731 99.4356 59.9619Z" fill="#0F0F0F"/>
<path d="M47.0573 60.4337C46.3237 61.2286 46.4117 62.73 47.204 63.2599C48.5538 64.2314 50.3731 63.3776 50.3731 61.8174C50.3731 60.1982 48.1136 59.2561 47.0573 60.4337Z" fill="#0F0F0F"/>
<path d="M108.65 60.4036C108.297 60.7569 108.473 61.3751 108.914 61.3751C109.148 61.3751 109.354 61.1985 109.354 60.963C109.354 60.4625 108.943 60.1387 108.65 60.4036Z" fill="#0F0F0F"/>
<path d="M34.8796 61.729C35.0557 62.2589 35.7013 62.3472 35.7013 61.8468C35.7013 61.5818 35.4959 61.3757 35.2318 61.3757C34.9677 61.3757 34.821 61.5229 34.8796 61.729Z" fill="#0F0F0F"/>
<path d="M95.6503 62.7301C95.2101 63.4366 95.2101 63.5838 95.5916 64.2904C96.3839 65.7329 98.4966 65.2324 98.4966 63.6133C98.4966 62.789 97.6456 61.9647 96.7947 61.9647C96.4426 61.9647 95.9437 62.2885 95.6503 62.7301Z" fill="#0F0F0F"/>
<path d="M41.2765 63.4358C40.8657 64.2013 41.1591 65.1139 41.8634 65.3494C43.1545 65.7616 44.2109 64.1424 43.2719 63.2003C42.7143 62.641 41.6286 62.7882 41.2765 63.4358Z" fill="#0F0F0F"/>
<path d="M105.363 63.7598C105.275 63.9365 105.363 64.2603 105.568 64.4958C106.097 64.9963 106.86 64.5547 106.625 63.907C106.419 63.3771 105.656 63.2888 105.363 63.7598Z" fill="#0F0F0F"/>
<path d="M49.4928 64.2608C48.7298 64.8791 48.6125 66.2333 49.2287 66.822C50.0796 67.6169 50.9013 67.6169 51.6935 66.8515C52.6032 65.9389 52.6325 65.3795 51.6935 64.4669C50.8426 63.5837 50.3731 63.5543 49.4928 64.2608Z" fill="#0F0F0F"/>
<path d="M91.953 64.5552C91.2487 65.3206 91.3368 66.5571 92.0997 67.087C92.9507 67.6758 93.3028 67.6758 94.0951 67.0281C94.5059 66.7043 94.77 66.1744 94.77 65.6445C94.77 64.1725 92.9213 63.4659 91.953 64.5552Z" fill="#0F0F0F"/>
<path d="M36.5815 65.7915C36.5815 65.9387 36.7282 66.0859 36.875 66.0859C37.051 66.0859 37.1684 65.9387 37.1684 65.7915C37.1684 65.6148 37.051 65.4971 36.875 65.4971C36.7282 65.4971 36.5815 65.6148 36.5815 65.7915Z" fill="#0F0F0F"/>
<path d="M87.8449 66.027C87.258 66.6746 87.1993 68.176 87.6982 68.6765C88.2263 69.2064 89.8402 69.0886 90.3684 68.4999C90.6619 68.2055 90.8673 67.6167 90.8673 67.2045C90.8673 65.7031 88.8426 64.9083 87.8449 66.027Z" fill="#0F0F0F"/>
<path d="M102.135 66.8211C102.018 67.0861 102.077 67.4393 102.253 67.616C102.693 68.0575 103.544 67.6454 103.426 67.0566C103.309 66.3795 102.37 66.2029 102.135 66.8211Z" fill="#0F0F0F"/>
<path d="M43.4773 67.2925C43.36 67.4397 43.36 67.9107 43.448 68.3229C43.5947 68.8234 43.8295 69.0294 44.3283 69.0294C45.2086 69.0294 45.7661 68.3523 45.5314 67.5575C45.326 66.9098 43.8295 66.7037 43.4773 67.2925Z" fill="#0F0F0F"/>
<path d="M51.8989 67.9108C51.4001 68.4112 51.4588 69.7949 52.0163 70.3248C52.9847 71.3257 54.7746 70.5309 54.7746 69.0883C54.7746 67.8224 52.8086 66.9981 51.8989 67.9108Z" fill="#0F0F0F"/>
<path d="M98.614 69.177C98.3499 69.8541 98.702 70.5018 99.3476 70.5018C100.022 70.5018 100.375 69.6775 99.9344 69.1476C99.4943 68.6177 98.8194 68.6177 98.614 69.177Z" fill="#0F0F0F"/>
<path d="M65.3383 69.6773C64.458 70.0011 64.1645 70.4133 64.1645 71.4436C64.1645 72.3268 65.1035 73.1511 66.1012 73.1511C66.9522 73.1511 67.6858 72.2385 67.6858 71.1787C67.6858 69.8539 66.6294 69.1768 65.3383 69.6773Z" fill="#0F0F0F"/>
<path d="M46.2943 70.9137C45.8542 71.4436 46.0596 72.209 46.7051 72.4445C47.3213 72.7095 48.0843 72.0029 47.9669 71.2669C47.8495 70.5015 46.7932 70.2954 46.2943 70.9137Z" fill="#0F0F0F"/>
<path d="M55.1267 71.149C54.9213 71.355 54.7746 71.8555 54.7746 72.2676C54.7746 73.2686 55.2734 73.7396 56.3005 73.7396C57.0927 73.7396 57.709 73.0625 57.709 72.1499C57.709 71.0606 55.919 70.3541 55.1267 71.149Z" fill="#0F0F0F"/>
<path d="M94.7406 71.1496C93.9777 71.915 94.77 73.0632 95.8557 72.7099C96.7947 72.4155 96.4425 70.7963 95.4155 70.7963C95.2395 70.7963 94.946 70.9435 94.7406 71.1496Z" fill="#0F0F0F"/>
<path d="M68.7715 71.9145C67.7152 73.0626 68.3607 74.6229 69.8866 74.6229C70.6495 74.6229 71.031 74.4463 71.4125 73.8575C71.8526 73.1509 71.8526 73.0037 71.4712 72.2972C70.9136 71.3257 69.5051 71.1196 68.7715 71.9145Z" fill="#0F0F0F"/>
<path d="M90.6325 72.621C89.8989 73.357 90.4565 74.6229 91.5128 74.6229C91.7769 74.6229 92.1584 74.3579 92.3344 74.0341C92.98 72.8565 91.5715 71.679 90.6325 72.621Z" fill="#0F0F0F"/>
<path d="M73.1731 73.092C72.5862 73.7397 72.5275 74.9467 73.0263 75.4472C73.2317 75.6532 73.7306 75.8004 74.1414 75.8004C75.1684 75.8004 75.6086 75.3 75.6086 74.1224C75.6086 72.6799 74.1121 72.0322 73.1731 73.092Z" fill="#0F0F0F"/>
<path d="M86.3483 73.6219C86.0843 73.8575 85.8788 74.2696 85.8788 74.4757C85.8788 74.9761 86.6711 75.8004 87.17 75.8004C87.6101 75.8004 88.5198 74.8584 88.5198 74.4168C88.5198 74.0341 87.5514 73.1509 87.1113 73.1509C86.9352 73.1509 86.5831 73.357 86.3483 73.6219Z" fill="#0F0F0F"/>
<path d="M77.4279 73.7988C77.2225 74.0049 77.0758 74.5054 77.0758 74.9175C77.0758 75.8596 77.5746 76.3895 78.3962 76.3895C79.1298 76.3895 80.0101 75.5358 80.0101 74.8587C80.0101 73.7988 78.1908 73.0334 77.4279 73.7988Z" fill="#0F0F0F"/>
<path d="M58.5012 73.946C58.1785 74.2699 58.2665 75.6535 58.648 76.0362C58.8534 76.2423 59.2642 76.3895 59.6163 76.3895C59.9684 76.3895 60.3792 76.2423 60.5846 76.0362C60.79 75.8302 60.9368 75.418 60.9368 75.0647C60.9368 74.7115 60.79 74.2993 60.5846 74.0932C60.2032 73.7105 58.824 73.6222 58.5012 73.946Z" fill="#0F0F0F"/>
<path d="M81.8294 74.093C81.2132 74.7112 81.4186 75.771 82.2402 76.1537C83.1499 76.5658 83.9128 76.1831 84.0595 75.2411C84.2649 74.0046 82.7097 73.2098 81.8294 74.093Z" fill="#0F0F0F"/>
<path d="M49.258 74.6814C49.346 75.4174 50.3144 75.7707 50.6665 75.1819C51.048 74.5931 50.6665 74.0338 49.8742 74.0338C49.2873 74.0338 49.17 74.1515 49.258 74.6814Z" fill="#0F0F0F"/>
<path d="M62.4333 76.5069C62.2279 76.7424 62.1105 77.2428 62.1692 77.6256C62.2279 78.1849 62.4333 78.3027 63.2843 78.3027C64.2526 78.3027 64.3113 78.2438 64.3113 77.2723C64.3113 76.3891 64.1939 76.2419 63.5484 76.1536C63.1375 76.0947 62.6387 76.2714 62.4333 76.5069Z" fill="#0F0F0F"/>
<path d="M52.7205 77.5667C52.7205 77.9495 52.9259 78.1555 53.3074 78.1555C53.6889 78.1555 53.8943 77.9495 53.8943 77.5667C53.8943 77.184 53.6889 76.978 53.3074 76.978C52.9259 76.978 52.7205 77.184 52.7205 77.5667Z" fill="#0F0F0F"/>
<path d="M66.5708 78.2149C65.7491 79.0392 66.5414 80.4228 67.6565 80.0696C68.3901 79.8341 68.6541 79.1569 68.2727 78.421C67.9206 77.8027 67.0989 77.685 66.5708 78.2149Z" fill="#0F0F0F"/>
<path d="M92.7746 78.715C92.6866 78.8622 92.7453 79.0683 92.9213 79.186C93.068 79.2743 93.2148 79.1566 93.2148 78.9211C93.2148 78.3912 93.0387 78.3028 92.7746 78.715Z" fill="#0F0F0F"/>
<path d="M70.7376 79.745C70.4441 80.5104 70.8549 81.1581 71.5592 81.0403C72.058 80.9814 72.2341 80.7459 72.2341 80.216C72.2341 79.6861 72.058 79.4506 71.5592 79.3917C71.1777 79.3329 70.8256 79.48 70.7376 79.745Z" fill="#0F0F0F"/>
<path d="M56.3592 79.951C56.0657 80.4515 56.7406 81.0108 57.1514 80.5987C57.5036 80.2454 57.2688 79.6272 56.8287 79.6272C56.6819 79.6272 56.4765 79.7744 56.3592 79.951Z" fill="#0F0F0F"/>
<path d="M88.5198 80.0693C88.5198 80.3343 88.6665 80.5109 88.8426 80.452C89.0186 80.3931 89.1653 80.2165 89.1653 80.0693C89.1653 79.9221 89.0186 79.7455 88.8426 79.6866C88.6665 79.6277 88.5198 79.8043 88.5198 80.0693Z" fill="#0F0F0F"/>
<path d="M75.1391 80.3634C74.875 81.0405 75.2271 81.6882 75.8727 81.6882C76.5476 81.6882 76.8997 80.8639 76.4595 80.334C76.0194 79.8041 75.3445 79.8041 75.1391 80.3634Z" fill="#0F0F0F"/>
<path d="M79.746 80.4811C79.1885 80.8344 79.57 81.6882 80.3036 81.6882C80.7731 81.6882 80.9198 81.541 80.8318 81.0405C80.7437 80.3045 80.3329 80.0984 79.746 80.4811Z" fill="#0F0F0F"/>
<path d="M83.9715 80.5107C83.7368 80.9229 84.0595 81.3939 84.5877 81.3939C84.8225 81.3939 84.9985 81.129 84.9985 80.8051C84.9985 80.1869 84.2943 79.9808 83.9715 80.5107Z" fill="#0F0F0F"/>
<path d="M60.3499 82.2771C60.3499 82.4243 60.4966 82.5715 60.6433 82.5715C60.8194 82.5715 60.9367 82.4243 60.9367 82.2771C60.9367 82.1004 60.8194 81.9827 60.6433 81.9827C60.4966 81.9827 60.3499 82.1004 60.3499 82.2771Z" fill="#0F0F0F"/>
<path d="M5.62402 97.9982C1.98541 99.7057 0.078079 103.827 1.19314 107.654C2.77769 113.13 8.91051 115.367 13.6055 112.217C14.6325 111.54 15.0433 111.04 15.102 110.451C15.2194 109.362 14.3097 109.391 12.8719 110.51C10.8472 112.1 8.41167 112.335 6.06418 111.128C4.68503 110.422 3.86341 109.509 3.10047 107.772C1.54526 104.21 3.92209 99.8234 7.8248 99.1169C9.55607 98.7931 10.7592 99.0874 12.5491 100.206C14.2511 101.266 15.1607 101.384 15.1607 100.559C15.1607 99.794 13.0773 98.0571 11.6688 97.6449C9.79082 97.0561 7.26727 97.2033 5.62402 97.9982Z" fill="#0F0F0F"/>
<path d="M24.2572 97.5557C22.9074 97.9678 21.763 98.7038 20.7066 99.8519C19.2101 101.412 18.6232 102.708 18.4472 104.827C17.8603 112.393 26.8981 116.573 32.3267 111.186C35.6425 107.918 35.4371 102.325 31.8572 99.2631C29.8912 97.5557 26.6634 96.8491 24.2572 97.5557ZM29.451 99.793C31.7985 100.971 33.3244 103.767 32.9429 106.181C32.1213 111.392 26.37 113.659 22.4673 110.303C20.1491 108.301 19.5622 105.504 20.8534 102.708C21.5283 101.206 22.8487 99.9402 24.2572 99.3809C25.6364 98.8216 27.8665 98.9982 29.451 99.793Z" fill="#0F0F0F"/>
<path d="M41.7167 97.9678C41.1005 98.3211 40.1615 99.2043 39.6626 99.8814L38.7823 101.177L38.6943 107.123C38.6063 112.246 38.6649 113.129 39.0464 113.453C39.3105 113.659 39.7213 113.777 39.9561 113.659C40.3375 113.541 40.3962 112.629 40.3962 108.036C40.3962 102.148 40.5723 101.265 41.9514 99.9697C43.8881 98.1739 47.1746 98.9099 48.4951 101.471C48.8179 102.06 48.9059 103.62 48.9059 107.83C48.9059 112.717 48.9646 113.453 49.3754 113.6C49.6395 113.718 50.0503 113.629 50.285 113.423C50.6372 113.129 50.6958 112.04 50.6078 107.123L50.5198 101.177L49.6395 99.8814C48.3777 98.0856 46.8518 97.2907 44.6511 97.2907C43.3599 97.2907 42.5677 97.4674 41.7167 97.9678Z" fill="#0F0F0F"/>
<path d="M57.3275 97.9095C55.1267 99.0871 54.4225 101.501 55.831 103.179C56.8286 104.357 57.9144 104.887 59.9977 105.269C62.0225 105.652 63.0495 106.153 63.8418 107.183C65.0742 108.743 64.3993 110.745 62.3746 111.54C59.6163 112.659 56.77 111.481 56.2711 109.008C56.1244 108.302 55.8896 108.007 55.4201 107.948C53.9236 107.713 54.4518 110.51 56.2418 112.129C57.5916 113.336 58.4132 113.63 60.6433 113.63C65.6317 113.601 68.1259 107.978 64.3993 105.122C63.8124 104.71 62.4039 104.121 61.1422 103.797C57.1221 102.796 55.919 101.501 57.5329 99.9703C59.4696 98.145 63.9004 98.9399 64.2232 101.236C64.2819 101.678 64.5167 101.854 65.0449 101.854C65.6611 101.854 65.8078 101.707 65.8665 100.942C65.9838 99.8231 65.1035 98.6455 63.5483 97.8801C61.9931 97.0852 58.8827 97.0852 57.3275 97.9095Z" fill="#0F0F0F"/>
<path d="M70.5321 97.4679C70.1507 97.8506 70.2974 113.041 70.6789 113.424C70.9136 113.659 72.4688 113.777 75.7847 113.777C79.6287 113.777 80.597 113.689 80.8905 113.336C81.0959 113.1 81.1839 112.688 81.0665 112.452C80.9491 112.099 80.1569 112.011 76.4889 112.011H72.058L72.146 109.126L72.2341 106.27L75.4619 106.123C78.4549 105.976 78.6897 105.917 78.6897 105.387C78.6897 104.857 78.4549 104.798 75.4619 104.651L72.2341 104.504V101.707V98.9104L76.6356 98.7632C80.8024 98.616 81.0372 98.5865 81.0372 98.0272C81.0372 97.4679 80.8024 97.4384 75.8727 97.3501C73.0557 97.3207 70.6495 97.3795 70.5321 97.4679Z" fill="#0F0F0F"/>
<path d="M87.4928 97.9679C86.8765 98.3212 85.9375 99.2044 85.4387 99.8815L84.5584 101.177L84.4704 107.124C84.3823 112.246 84.441 113.129 84.8225 113.453C85.0866 113.659 85.4974 113.777 85.7321 113.659C86.1136 113.541 86.1723 112.629 86.1723 108.036C86.1723 102.178 86.3483 101.236 87.6688 100.029C89.1653 98.7039 91.7182 98.6745 93.1267 99.9698C94.5646 101.353 94.6819 101.883 94.6819 107.683C94.6819 113.365 94.8287 114.042 95.9731 113.6C96.4132 113.424 96.4719 112.805 96.3839 107.3L96.2958 101.177L95.4155 99.8815C94.1538 98.0857 92.6279 97.2908 90.4271 97.2908C89.136 97.2908 88.3437 97.4675 87.4928 97.9679Z" fill="#0F0F0F"/>
<path d="M103.28 97.8801C100.932 98.9399 100.169 101.442 101.607 103.179C102.605 104.357 103.69 104.887 105.774 105.269C108.62 105.799 110.234 107.095 110.234 108.831C110.234 110.097 109.765 110.745 108.473 111.422C105.803 112.776 102.575 111.569 102.047 109.008C101.9 108.331 101.666 108.007 101.226 107.948C99.7291 107.742 100.257 110.51 102.018 112.129C103.368 113.336 104.189 113.63 106.449 113.63C109.5 113.601 111.995 111.363 111.995 108.625C111.995 106.241 109.941 104.327 106.86 103.738C103.221 103.061 101.754 101.56 103.25 100.029C105.128 98.145 109.207 98.7633 109.97 101.03C110.205 101.766 110.439 102.002 110.997 102.002C111.613 102.002 111.701 101.854 111.701 101.001C111.701 98.0567 106.86 96.2315 103.28 97.8801Z" fill="#0F0F0F"/>
<path d="M114.753 97.7325C114.577 98.1741 115.399 99.3517 119.976 105.21L121.678 107.389V110.45C121.678 112.894 121.766 113.541 122.118 113.659C123.145 114.071 123.439 113.247 123.439 110.126V107.153L126.813 102.826C130.217 98.498 130.804 97.291 129.542 97.291C129.043 97.3204 128.075 98.3213 125.786 101.265C124.084 103.444 122.588 105.181 122.412 105.122C122.265 105.092 120.768 103.297 119.096 101.177C116.103 97.3498 115.164 96.6139 114.753 97.7325Z" fill="#0F0F0F"/>
<path d="M135.704 97.8805C134.12 98.7342 133.416 99.794 133.416 101.295C133.416 102.355 133.592 102.738 134.413 103.562C135 104.18 135.91 104.681 136.761 104.887C137.494 105.093 138.727 105.387 139.46 105.594C141.221 106.035 142.805 107.507 142.805 108.685C142.805 111.305 138.873 112.924 136.35 111.393C135.117 110.628 134.971 110.422 134.56 108.979C134.325 108.066 134.149 107.86 133.621 107.949C131.948 108.184 133.239 111.599 135.528 112.894C136.849 113.63 139.167 113.866 140.839 113.395C142.013 113.071 143.891 111.246 144.273 110.068C144.683 108.891 144.449 107.272 143.774 106.212C143.07 105.152 141.162 104.151 138.785 103.621C135.763 102.944 134.736 101.973 135.352 100.412C135.763 99.323 138.257 98.6459 140.077 99.0875C141.368 99.4407 142.395 100.324 142.571 101.266C142.629 101.678 142.894 101.855 143.392 101.855C145.153 101.855 143.979 98.852 141.837 97.8805C140.165 97.115 137.172 97.115 135.704 97.8805Z" fill="#0F0F0F"/>
</svg>
